<svg width="76" height="32" viewBox="0 0 70 90" fill="none" xmlns="http://www.w3.org/2000/svg">
<path d="M185.305 44.0053C185.305 43.3746 185.122 42.8833 184.755 42.5313C184.403 42.1793 183.934 42.0033 183.347 42.0033C182.804 42.0033 182.328 42.1426 181.917 42.4213C181.506 42.6999 181.206 43.1619 181.015 43.8073L178.441 43.0153C178.69 42.0473 179.233 41.2699 180.069 40.6833C180.92 40.0966 182.056 39.8033 183.479 39.8033C184.447 39.8033 185.29 39.9573 186.009 40.2653C186.728 40.5586 187.285 41.0059 187.681 41.6073C188.092 42.2086 188.297 42.9639 188.297 43.8733V48.3393C188.297 48.8966 188.561 49.1753 189.089 49.1753C189.338 49.1753 189.573 49.1386 189.793 49.0653L189.617 50.9353C189.236 51.1259 188.759 51.2213 188.187 51.2213C187.674 51.2213 187.212 51.1333 186.801 50.9573C186.39 50.7813 186.068 50.5173 185.833 50.1653C185.598 49.7986 185.481 49.3439 185.481 48.8013V48.7133L186.009 48.6253C185.921 49.1826 185.679 49.6593 185.283 50.0553C184.887 50.4366 184.403 50.7299 183.831 50.9353C183.274 51.1406 182.694 51.2433 182.093 51.2433C181.345 51.2433 180.7 51.1333 180.157 50.9133C179.614 50.6786 179.196 50.3413 178.903 49.9013C178.61 49.4613 178.463 48.9186 178.463 48.2733C178.463 47.4519 178.727 46.7846 179.255 46.2713C179.783 45.7433 180.538 45.3839 181.521 45.1933L185.657 44.3573L185.635 46.2273L182.995 46.7553C182.496 46.8579 182.115 46.9973 181.851 47.1733C181.602 47.3346 181.477 47.6059 181.477 47.9873C181.477 48.3539 181.609 48.6326 181.873 48.8233C182.152 49.0139 182.482 49.1093 182.863 49.1093C183.171 49.1093 183.472 49.0726 183.765 48.9993C184.058 48.9259 184.322 48.8086 184.557 48.6473C184.792 48.4859 184.975 48.2659 185.107 47.9873C185.239 47.7086 185.305 47.3713 185.305 46.9753V44.0053ZM201.896 37.4053L202.248 39.5613C202.189 39.5613 202.123 39.5613 202.05 39.5613C201.991 39.5466 201.925 39.5393 201.852 39.5393C201.177 39.5393 200.671 39.6933 200.334 40.0013C199.996 40.2946 199.828 40.7053 199.828 41.2333L198.596 40.7273C198.596 40.1406 198.713 39.5979 198.948 39.0993C199.182 38.5859 199.527 38.1753 199.982 37.8673C200.451 37.5593 201.008 37.4053 201.654 37.4053C201.683 37.4053 201.72 37.4053 201.764 37.4053C201.808 37.4053 201.852 37.4053 201.896 37.4053ZM198.288 48.9553C199.476 48.9553 200.392 49.2119 201.038 49.7253C201.683 50.2386 202.006 50.9573 202.006 51.8813C202.006 52.7173 201.764 53.4213 201.28 53.9933C200.796 54.5799 200.114 55.0199 199.234 55.3133C198.368 55.6066 197.364 55.7533 196.22 55.7533C194.328 55.7533 192.942 55.4893 192.062 54.9613C191.196 54.4333 190.764 53.7439 190.764 52.8933C190.764 52.2919 190.991 51.7859 191.446 51.3753C191.915 50.9646 192.685 50.7373 193.756 50.6933L193.646 51.0453C192.883 50.9133 192.296 50.6639 191.886 50.2973C191.49 49.9159 191.292 49.3953 191.292 48.7353C191.292 48.0606 191.548 47.5106 192.062 47.0853C192.59 46.6453 193.301 46.3886 194.196 46.3153L195.516 46.9313H195.208C194.577 46.9753 194.13 47.1073 193.866 47.3273C193.616 47.5326 193.492 47.7673 193.492 48.0313C193.492 48.3393 193.609 48.5739 193.844 48.7353C194.093 48.8819 194.445 48.9553 194.9 48.9553H198.288ZM196.242 53.6853C197.004 53.6853 197.628 53.6193 198.112 53.4873C198.61 53.3553 198.977 53.1866 199.212 52.9813C199.461 52.7759 199.586 52.5486 199.586 52.2993C199.586 52.0206 199.476 51.7933 199.256 51.6173C199.036 51.4559 198.64 51.3753 198.068 51.3753H194.35C193.998 51.3753 193.704 51.4633 193.47 51.6393C193.25 51.8153 193.14 52.0573 193.14 52.3653C193.14 52.7759 193.411 53.0986 193.954 53.3333C194.511 53.5679 195.274 53.6853 196.242 53.6853ZM196.264 39.8033C197.29 39.8033 198.178 39.9573 198.926 40.2653C199.688 40.5586 200.268 40.9839 200.664 41.5413C201.074 42.0986 201.28 42.7659 201.28 43.5433C201.28 44.3059 201.074 44.9659 200.664 45.5233C200.268 46.0806 199.688 46.5133 198.926 46.8213C198.178 47.1146 197.29 47.2613 196.264 47.2613C194.636 47.2613 193.389 46.9313 192.524 46.2713C191.673 45.5966 191.248 44.6873 191.248 43.5433C191.248 42.7659 191.446 42.0986 191.842 41.5413C192.252 40.9839 192.832 40.5586 193.58 40.2653C194.328 39.9573 195.222 39.8033 196.264 39.8033ZM196.264 41.6953C195.677 41.6953 195.193 41.8566 194.812 42.1793C194.43 42.5019 194.24 42.9493 194.24 43.5213C194.24 44.0933 194.43 44.5479 194.812 44.8853C195.193 45.2079 195.677 45.3693 196.264 45.3693C196.85 45.3693 197.327 45.2079 197.694 44.8853C198.075 44.5479 198.266 44.0933 198.266 43.5213C198.266 42.9493 198.075 42.5019 197.694 42.1793C197.327 41.8566 196.85 41.6953 196.264 41.6953ZM208.844 39.8033C209.959 39.8033 210.934 40.0306 211.77 40.4853C212.621 40.9399 213.281 41.5926 213.75 42.4433C214.234 43.2939 214.476 44.3206 214.476 45.5233C214.476 46.7113 214.234 47.7379 213.75 48.6033C213.281 49.4539 212.621 50.1066 211.77 50.5613C210.934 51.0159 209.959 51.2433 208.844 51.2433C207.744 51.2433 206.769 51.0159 205.918 50.5613C205.067 50.1066 204.4 49.4539 203.916 48.6033C203.447 47.7379 203.212 46.7113 203.212 45.5233C203.212 44.3206 203.447 43.2939 203.916 42.4433C204.4 41.5926 205.067 40.9399 205.918 40.4853C206.769 40.0306 207.744 39.8033 208.844 39.8033ZM208.844 42.0473C208.287 42.0473 207.81 42.1793 207.414 42.4433C207.033 42.6926 206.739 43.0739 206.534 43.5873C206.329 44.1006 206.226 44.7459 206.226 45.5233C206.226 46.3006 206.329 46.9459 206.534 47.4593C206.739 47.9726 207.033 48.3613 207.414 48.6253C207.81 48.8746 208.287 48.9993 208.844 48.9993C209.387 48.9993 209.849 48.8746 210.23 48.6253C210.626 48.3613 210.927 47.9726 211.132 47.4593C211.337 46.9459 211.44 46.3006 211.44 45.5233C211.44 44.7459 211.337 44.1006 211.132 43.5873C210.927 43.0739 210.626 42.6926 210.23 42.4433C209.849 42.1793 209.387 42.0473 208.844 42.0473ZM216.998 51.0233V40.0233H219.704L219.88 43.3233L219.506 42.9713C219.682 42.2526 219.961 41.6586 220.342 41.1893C220.723 40.7199 221.185 40.3753 221.728 40.1553C222.285 39.9206 222.894 39.8033 223.554 39.8033C224.317 39.8033 224.991 39.9499 225.578 40.2433C226.179 40.5366 226.649 40.9839 226.986 41.5853C227.338 42.1719 227.514 42.9126 227.514 43.8073V51.0233H224.5V44.6653C224.5 43.7266 224.317 43.0813 223.95 42.7293C223.583 42.3626 223.107 42.1793 222.52 42.1793C222.109 42.1793 221.706 42.2819 221.31 42.4873C220.929 42.6779 220.613 42.9933 220.364 43.4333C220.129 43.8733 220.012 44.4599 220.012 45.1933V51.0233H216.998Z" fill="#101828"/>
<ellipse cx="76.3039" cy="45" rx="76.3039" ry="45" fill="#101828"/>
<path d="M96.6207 32.9312C96.6207 26.7674 88.0693 21.7243 77.6178 21.7243C67.1663 21.7243 58.6149 26.7674 58.6149 32.9312C58.6149 39.0949 67.1663 44.1381 77.6178 44.1381C88.0693 44.1381 96.6207 39.0949 96.6207 32.9312ZM63.0002 32.9312L72.1363 29.7846C73.598 29.2673 75.4253 29.9139 75.4253 30.9053V32.9311C75.4253 33.6638 76.3755 34.2242 77.6179 34.2242H92.0164C90.9931 38.3621 84.9268 41.5518 77.6179 41.5518C69.5783 41.5518 63.0003 37.6725 63.0003 32.9311L63.0002 32.9312Z" fill="white"/>
<path d="M114.601 55.6469C114.016 55.0435 112.628 54.828 111.604 55.1728C110.581 55.5176 110.216 56.3365 110.8 56.9401L118.694 64.9573C119.059 65.3021 119.279 65.6901 119.279 66.1211C119.279 67.328 117.671 68.2762 115.624 68.2762H104.88L107.219 51.7679C107.365 50.6902 106.781 49.6127 105.538 48.8368C104.296 48.061 102.469 47.5868 100.641 47.5868H54.0121C52.1848 47.5868 50.3577 48.0609 49.1153 48.8799C47.8729 49.6988 47.288 50.7764 47.4344 51.8971L50.3579 68.3198H39.614C37.5676 68.3198 35.9596 67.3715 35.9596 66.1646C35.9596 65.7767 36.1789 65.3887 36.4712 65.0439C36.5443 65.0008 44.4379 56.9836 44.4379 56.9836C45.0226 56.3802 44.6572 55.5612 43.634 55.2163C42.6107 54.8715 41.222 55.087 40.6373 55.6905L32.8899 63.5353C32.0129 64.3112 31.5744 65.2163 31.5744 66.1215C31.5744 68.7509 35.1557 70.8629 39.614 70.8629H52.7699H52.9891H73.1614H73.2345H115.626C120.084 70.8629 123.665 68.7508 123.665 66.1215C123.665 65.2163 123.227 64.3112 122.35 63.5353L114.602 55.6474L114.601 55.6469ZM76.8877 61.3797C74.4757 61.3797 72.5024 60.216 72.5024 58.7935C72.5024 57.3711 74.4757 56.2073 76.8877 56.2073C79.2997 56.2073 81.273 57.3711 81.273 58.7935C81.273 60.216 79.2997 61.3797 76.8877 61.3797Z" fill="white"/>
</svg>
